<mxfile host="app.diagrams.net" agent="Mozilla/5.0 (Windows NT 10.0; Win64; x64) AppleWebKit/537.36 (KHTML, like Gecko) Chrome/128.0.0.0 Safari/537.36 Edg/128.0.0.0" version="24.7.16" pages="2">
  <diagram name="Security Groups" id="yfmbPATlqIKZgrAjbprR">
    <mxGraphModel dx="1656" dy="775" grid="1" gridSize="10" guides="1" tooltips="1" connect="1" arrows="1" fold="1" page="1" pageScale="1" pageWidth="850" pageHeight="1100" math="0" shadow="0">
      <root>
        <mxCell id="0" />
        <mxCell id="1" parent="0" />
        <mxCell id="gLIbnfDutDoI6JSrVKNZ-1" value="security group forÂ &#xa;Application Load Balancers" style="rounded=1;arcSize=10;dashed=1;strokeColor=#ff0000;fillColor=none;gradientColor=none;dashPattern=8 4;strokeWidth=2;" vertex="1" parent="1">
          <mxGeometry x="80" y="80" width="170" height="120" as="geometry" />
        </mxCell>
        <UserObject label="home?region=us-east-2#SecurityGroup:groupId=sg-03a0e00b39d80b4e2" linkTarget="_blank" link="https://us-east-2.console.aws.amazon.com/ec2/home?region=us-east-2#SecurityGroup:groupId=sg-03a0e00b39d80b4e2" id="gLIbnfDutDoI6JSrVKNZ-2">
          <mxCell style="fontColor=#0000EE;fontStyle=4;rounded=1;overflow=hidden;spacing=10;" vertex="1" parent="1">
            <mxGeometry x="260" y="120" width="430" height="40" as="geometry" />
          </mxCell>
        </UserObject>
        <mxCell id="gLIbnfDutDoI6JSrVKNZ-3" value="&lt;div style=&quot;font-size: 9px;&quot;&gt;&lt;b style=&quot;font-size: 9px;&quot;&gt;SG #1&amp;nbsp;&lt;/b&gt;&lt;/div&gt;&lt;div style=&quot;font-size: 9px;&quot;&gt;&lt;b style=&quot;font-size: 9px;&quot;&gt;(Application Load Balancer&lt;/b&gt;&lt;b style=&quot;background-color: initial;&quot;&gt;)&lt;/b&gt;&lt;/div&gt;" style="text;html=1;align=center;verticalAlign=middle;whiteSpace=wrap;rounded=0;fontSize=9;fontFamily=Roboto Mono;fontSource=https%3A%2F%2Ffonts.googleapis.com%2Fcss%3Ffamily%3DRoboto%2BMono;" vertex="1" parent="1">
          <mxGeometry x="-20" y="84" width="90" height="36" as="geometry" />
        </mxCell>
      </root>
    </mxGraphModel>
  </diagram>
  <diagram id="5xKTOoT5ZGSO6uFTEzVw" name="Load balancers">
    <mxGraphModel dx="2066" dy="783" grid="1" gridSize="10" guides="1" tooltips="1" connect="1" arrows="1" fold="1" page="1" pageScale="1" pageWidth="850" pageHeight="1100" math="0" shadow="0">
      <root>
        <mxCell id="0" />
        <mxCell id="1" parent="0" />
        <mxCell id="8l_qz4Aeb9K-DR9xpl2r-1" value="&lt;div style=&quot;font-size: 9px;&quot;&gt;&lt;b style=&quot;font-size: 9px;&quot;&gt;Target group #1&amp;nbsp;&lt;/b&gt;&lt;/div&gt;&lt;div style=&quot;font-size: 9px;&quot;&gt;&lt;b style=&quot;font-size: 9px;&quot;&gt;(for Application Load Balancer&lt;/b&gt;&lt;b style=&quot;background-color: initial;&quot;&gt;)&lt;/b&gt;&lt;/div&gt;" style="text;html=1;align=center;verticalAlign=middle;whiteSpace=wrap;rounded=0;fontSize=9;fontFamily=Roboto Mono;fontSource=https%3A%2F%2Ffonts.googleapis.com%2Fcss%3Ffamily%3DRoboto%2BMono;" vertex="1" parent="1">
          <mxGeometry x="40" y="40" width="90" height="36" as="geometry" />
        </mxCell>
        <UserObject label="33b5a72a7197a07c;tab=targets" linkTarget="_blank" link="https://us-east-2.console.aws.amazon.com/ec2/home?region=us-east-2#TargetGroup:targetGroupArn=arn:aws:elasticloadbalancing:us-east-2:014498653743:targetgroup/alb-target-group/33b5a72a7197a07c;tab=targets" id="Rz0qEoZjm9POzw0laTiU-1">
          <mxCell style="fontColor=#0000EE;fontStyle=4;rounded=1;overflow=hidden;spacing=10;" vertex="1" parent="1">
            <mxGeometry x="160" y="38" width="210" height="40" as="geometry" />
          </mxCell>
        </UserObject>
      </root>
    </mxGraphModel>
  </diagram>
</mxfile>
